<svg width="1866" height="1627" xmlns="http://www.w3.org/2000/svg" xmlns:xlink="http://www.w3.org/1999/xlink" xml:space="preserve" overflow="hidden"><defs><filter id="fx0" x="-10%" y="-10%" width="120%" height="120%" filterUnits="userSpaceOnUse" primitiveUnits="userSpaceOnUse"><feComponentTransfer color-interpolation-filters="sRGB"><feFuncR type="discrete" tableValues="0 0"/><feFuncG type="discrete" tableValues="0 0"/><feFuncB type="discrete" tableValues="0 0"/><feFuncA type="linear" slope="0.301961" intercept="0"/></feComponentTransfer><feGaussianBlur stdDeviation="5.51546 5.50653"/></filter><clipPath id="clip1"><rect x="0" y="0" width="309" height="464"/></clipPath></defs><g transform="translate(-1132 -266)"><g filter="url(#fx0)" transform="matrix(1.99676 0 0 2 1762 603)"><g clip-path="url(#clip1)"><path d="M149.766-427.231 224.588-427.231C254.449-427.231 278.169-418.444 295.747-400.87 313.324-383.295 322.113-359.581 322.113-329.726L322.113-311.665C322.113-302.549 317.555-297.991 308.439-297.991L289.731-297.991C280.622-297.991 276.068-302.549 276.068-311.665L276.068-327.784C276.068-366.406 257.404-385.716 220.078-385.716L153.639-385.716C116.737-385.716 98.286-365.978 98.286-326.5L98.286-294.252C98.286-267.712 122.952-249.627 172.286-239.998 195.154-235.512 217.778-230.445 240.157-224.798 262.536-219.151 282.004-208.506 298.561-192.863 315.119-177.22 323.398-156.19 323.398-129.774L323.398-98.1627C323.398-67.9382 314.595-44.0217 296.99-26.413 279.384-8.80433 255.682 0 225.882 0L149.766 0C119.898 0 96.1782-8.78721 78.6072-26.3616 61.0362-43.9361 52.2507-67.8697 52.2507-98.1627L52.2507-121.391C52.2507-130.062 56.8053-134.397 65.9144-134.397L84.6223-134.397C93.7314-134.397 98.286-130.062 98.286-121.391L98.286-100.104C98.286-61.0448 116.953-41.515 154.286-41.515L221.362-41.515C258.689-41.515 277.352-61.2571 277.352-100.741L277.352-127.832C277.352-144.414 270.255-157.632 256.06-167.488 241.866-177.343 223.803-184.636 201.873-189.365 179.943-194.094 157.844-199.053 135.579-204.241 113.313-209.429 93.8581-219.42 77.2152-234.214 60.5722-249.008 52.2507-269.02 52.2507-294.252L52.2507-329.726C52.2507-359.649 61.0208-383.381 78.561-400.921 96.1012-418.461 119.836-427.231 149.766-427.231Z" stroke="#5B9BD5" stroke-width="2" stroke-linejoin="round" stroke-miterlimit="10" fill="#FFFFFF" fill-rule="evenodd" transform="matrix(1.00162 0 0 1 -33.6691 445.54)"/></g></g><path d="M1994.3 620.025 2143.95 620.025C2203.67 620.025 2251.11 637.6 2286.26 672.749 2321.42 707.897 2339 755.326 2339 815.036L2339 851.157C2339 869.389 2329.88 878.505 2311.65 878.505L2274.23 878.505C2256.02 878.505 2246.91 869.389 2246.91 851.157L2246.91 818.919C2246.91 741.677 2209.58 703.055 2134.93 703.055L2002.05 703.055C1928.24 703.055 1891.34 742.533 1891.34 821.487L1891.34 885.984C1891.34 939.063 1940.68 975.233 2039.34 994.492 2085.08 1003.46 2130.33 1013.6 2175.08 1024.89 2219.84 1036.19 2258.78 1057.48 2291.89 1088.76 2325.01 1120.05 2341.57 1162.11 2341.57 1214.94L2341.57 1278.16C2341.57 1338.61 2323.96 1386.44 2288.75 1421.66 2253.54 1456.88 2206.13 1474.49 2146.53 1474.49L1994.3 1474.49C1934.57 1474.49 1887.13 1456.91 1851.99 1421.76 1816.84 1386.62 1799.27 1338.75 1799.27 1278.16L1799.27 1231.71C1799.27 1214.36 1808.38 1205.69 1826.6 1205.69L1864.02 1205.69C1882.23 1205.69 1891.34 1214.36 1891.34 1231.71L1891.34 1274.28C1891.34 1352.4 1928.68 1391.46 2003.34 1391.46L2137.49 1391.46C2212.15 1391.46 2249.47 1351.97 2249.47 1273L2249.47 1218.82C2249.47 1185.66 2235.28 1159.22 2206.89 1139.51 2178.5 1119.8 2142.38 1105.22 2098.52 1095.76 2054.66 1086.3 2010.46 1076.38 1965.93 1066.01 1921.4 1055.63 1882.49 1035.65 1849.2 1006.06 1815.92 976.472 1799.27 936.447 1799.27 885.984L1799.27 815.036C1799.27 755.189 1816.81 707.726 1851.89 672.646 1886.97 637.565 1934.44 620.025 1994.3 620.025Z" stroke="#5B9BD5" stroke-width="4" stroke-linejoin="round" stroke-miterlimit="10" fill="#FFFFFF" fill-rule="evenodd"/><text fill="#000000" fill-opacity="0" font-family="Arial,Arial_MSFontService,sans-serif" font-size="854.462" x="1799.27" y="1367.68">S</text></g></svg>